# xmcd CD database file
#
# Track frame offsets:
#	150
#	23285
#	42247
#	67404
#	88299
#	102531
#	126130
#	148879
#	160464
#	177096
#	195166
#
# Disc length: 3031 seconds
#
# Revision: 1
# Processed by: cddbd v1.5.1PL0 Copyright (c) Steve Scherf et al.
# Submitted via: CDex 1.51
#
DISCID=9a0bd50b
DTITLE=Chie Ayado - TIME
DYEAR=2004
DGENRE=Jazz
TTITLE0=Trav'lin' Light
TTITLE1=What A Diffecrence A Day Made
TTITLE2=Lover Man
TTITLE3=A Time For Love
TTITLE4=Gree Baby,Ain't I Good To You
TTITLE5=Fools Rush In
TTITLE6=Solitude
TTITLE7=Don't Be Cruel
TTITLE8=Someday We'll Be Together
TTITLE9=Georgia On My Mind
TTITLE10=Blowin' In The Wind
EXTD=YEAR: 2004
EXTT0=
EXTT1=
EXTT2=
EXTT3=
EXTT4=
EXTT5=
EXTT6=
EXTT7=
EXTT8=
EXTT9=
EXTT10=
PLAYORDER=
